<?xml version="1.0" encoding="utf-8"?>
<!-- Generator: Adobe Illustrator 16.0.0, SVG Export Plug-In . SVG Version: 6.00 Build 0)  -->
<!DOCTYPE svg PUBLIC "-//W3C//DTD SVG 1.0//EN" "http://www.w3.org/TR/2001/REC-SVG-20010904/DTD/svg10.dtd">
<svg version="1.0" id="Layer_1" xmlns="http://www.w3.org/2000/svg" xmlns:xlink="http://www.w3.org/1999/xlink" x="0px" y="0px"
	 width="612px" height="792px" viewBox="0 0 612 792" enable-background="new 0 0 612 792" xml:space="preserve">
<path fill="#010101" d="M305.984,145.586c138.355,0,250.92,112.559,250.92,250.914c0,138.354-112.565,250.92-250.92,250.92
	c-138.354,0-250.92-112.565-250.92-250.92C55.064,258.145,167.629,145.586,305.984,145.586 M305.984,121.106
	c-152.106,0-275.4,123.293-275.4,275.394c0,152.106,123.293,275.4,275.4,275.4c152.1,0,275.4-123.294,275.4-275.4
	C581.384,244.399,458.084,121.106,305.984,121.106L305.984,121.106z"/>
<path fill="#010101" d="M305.984,365.906c-16.885,0-30.6,13.696-30.6,30.594c0,16.891,13.715,30.6,30.6,30.6
	c16.885,0,30.6-13.709,30.6-30.6C336.584,379.603,322.869,365.906,305.984,365.906L305.984,365.906z"/>
<path fill="#010101" d="M305.984,567.86c-16.885,0-30.6,13.696-30.6,30.6c0,16.892,13.715,30.6,30.6,30.6
	c16.885,0,30.6-13.708,30.6-30.6C336.584,581.557,322.869,567.86,305.984,567.86L305.984,567.86z"/>
<path fill="#010101" d="M436.548,327.295c-13.507,0-24.479,10.961-24.479,24.48c0,13.513,10.973,24.48,24.479,24.48
	s24.48-10.967,24.48-24.48C461.028,338.256,450.055,327.295,436.548,327.295L436.548,327.295z"/>
<path fill="#010101" d="M156.271,243.506c-10.128,0-18.36,8.219-18.36,18.36c0,10.135,8.231,18.36,18.36,18.36
	s18.36-8.225,18.36-18.36C174.63,251.725,166.399,243.506,156.271,243.506L156.271,243.506z"/>
<path fill="#010101" d="M171.062,529.886c0,0,3.176,2.956,9.113,8.513c1.487,1.389,3.152,2.932,4.976,4.645
	c1.812,1.39,3.788,2.896,5.93,4.529c2.136,1.64,4.425,3.402,6.867,5.281c2.393,1.928,5.483,3.537,8.446,5.49
	c11.854,8.041,27.803,15.361,46.793,21.426c19.113,6.083,41.604,9.076,66.671,7.644c6.756,0.037,12.454-1.278,18.739-2.05
	c6.188-0.551,12.57-2.546,19.045-4.027c12.932-3.28,25.784-8.494,38.538-14.768c25.343-12.907,48.85-32.883,67.399-57.943
	c2.503-3.006,4.56-6.341,6.598-9.701c2.087-3.341,4.18-6.694,6.272-10.055c1.763-3.556,3.525-7.124,5.3-10.697
	c1.83-3.557,3.605-7.154,4.878-10.979c1.426-3.758,2.864-7.534,4.297-11.322c1.389-3.8,2.19-7.797,3.329-11.708
	c2.479-7.79,3.464-15.941,4.847-24.063c0.875-4.039,0.802-8.194,1.145-12.319c0.202-3.984,0.624-8.574,0.667-12.1l-0.508-12.907
	l-0.257-6.469l-0.875-6.089l-1.72-12.216c-0.814-4.076-1.946-8.14-2.907-12.215c-1.616-8.268-5.019-16.004-7.662-23.991
	c-6.665-15.392-14.297-30.6-24.688-43.855c-4.67-7.026-10.667-12.95-16.132-19.303c-2.84-3.072-6.071-5.753-9.076-8.654
	c-3.072-2.833-6.022-5.802-9.449-8.194c-26.022-20.753-56.738-35.086-88.257-40.349c-31.414-5.618-63.17-3.562-91.304,4.547
	c-28.311,8.146-52.914,22.528-72.583,39.095c-19.664,16.677-34.67,35.496-44.97,53.819c-2.705,4.504-4.7,9.217-6.965,13.574
	c-1.059,2.215-2.24,4.333-3.146,6.523c-0.838,2.216-1.659,4.388-2.466,6.518c-1.561,4.278-3.28,8.317-4.523,12.301
	c-1.089,4.039-2.124,7.889-3.109,11.542c-2.283,7.246-2.846,14.027-3.935,19.817c-1.157,5.79-1.389,10.802-1.604,14.859
	c-0.483,8.133-0.753,12.466-0.753,12.466s0.171-4.333,0.49-12.466c0.128-4.07,0.245-9.101,1.279-14.921
	c0.96-5.82,1.383-12.656,3.506-19.981c0.906-3.697,1.867-7.595,2.871-11.677c1.163-4.039,2.803-8.14,4.284-12.485
	c0.765-2.167,1.548-4.375,2.344-6.628c0.869-2.228,2.007-4.388,3.023-6.646c2.185-4.449,4.101-9.253,6.738-13.868
	c10.006-18.758,24.786-38.183,44.443-55.619c19.67-17.319,44.499-32.607,73.434-41.628c28.966-9.015,61.476-11.861,94.254-6.756
	c32.864,4.761,65.307,18.959,93.116,40.165c3.647,2.448,6.823,5.484,10.116,8.391c3.231,2.968,6.689,5.734,9.755,8.905
	c5.906,6.536,12.356,12.681,17.461,19.976c11.267,13.776,19.749,29.67,27.166,45.894c3.018,8.403,6.781,16.585,8.728,25.343
	c1.12,4.333,2.411,8.604,3.378,12.999l2.191,13.439l1.064,6.72l0.392,6.463l0.796,12.895c0.086,5.067-0.27,9.052-0.392,13.623
	c-0.257,4.425-0.122,8.88-0.931,13.244c-1.272,8.751-2.185,17.552-4.645,26.01c-1.126,4.241-1.928,8.567-3.323,12.712
	c-1.457,4.124-2.913,8.236-4.363,12.331c-1.31,4.162-3.128,8.097-5.013,11.989c-1.842,3.917-3.672,7.815-5.496,11.707
	c-2.185,3.697-4.369,7.381-6.542,11.053c-2.142,3.697-4.309,7.356-6.934,10.686c-19.517,27.669-44.707,50.037-72.198,64.836
	c-13.831,7.222-27.87,13.25-42.057,17.197c-7.147,1.829-13.953,4.094-21.279,4.976c-7.123,1.077-14.474,2.619-20.771,2.698
	c-26.824,2.143-52.541-0.618-73.856-6.921c-21.377-6.261-39.431-14.156-52.944-22.841c-3.427-2.142-6.775-3.818-9.725-6.04
	c-2.962-2.179-5.741-4.217-8.323-6.126c-2.57-1.916-4.945-3.69-7.124-5.312c-1.867-1.664-3.556-3.182-5.074-4.528
	c-6.065-5.423-9.302-8.312-9.302-8.312L171.062,529.886z"/>
<path fill="#010101" d="M214.392,486.636c0,0,2.197,2.074,6.322,5.973c1.028,0.967,2.179,2.057,3.445,3.25
	c1.206,0.93,2.527,1.946,3.954,3.048c2.821,2.203,5.991,4.816,10.257,7.307c7.999,5.521,18.795,10.539,31.665,14.756
	c12.98,4.223,28.177,6.347,45.367,5.478c4.78,0.036,8.52-0.833,12.761-1.328c4.144-0.337,8.519-1.665,12.932-2.662
	c8.825-2.179,17.607-5.686,26.328-9.921c17.351-8.696,33.488-22.259,46.279-39.321c13.018-16.958,21.347-38.188,24.688-60.472
	c0.618-2.766,0.594-5.618,0.832-8.439c0.159-2.687,0.453-5.991,0.521-8.201l-0.318-8.997l-0.153-4.51l-0.575-4.155l-1.132-8.323
	c-0.533-2.791-1.311-5.594-1.946-8.397c-1.084-5.691-3.391-11.016-5.184-16.512c-4.517-10.606-9.719-21.096-16.824-30.263
	c-3.188-4.853-7.295-8.959-11.04-13.354c-1.935-2.142-4.168-3.984-6.225-5.998c-2.111-1.958-4.131-4.027-6.48-5.686
	c-17.871-14.4-39.016-24.431-60.772-28.176c-21.688-4.002-43.715-2.687-63.195,2.827c-19.639,5.545-36.75,15.435-50.465,26.867
	C201.73,302.931,191.228,315.955,184,328.66c-1.897,3.127-3.292,6.389-4.89,9.419c-1.652,3.011-2.864,6.071-3.954,9.051
	c-1.102,2.968-2.313,5.777-3.188,8.543c-0.771,2.803-1.505,5.483-2.203,8.023c-1.616,5.043-2.026,9.761-2.809,13.789
	c-0.826,4.033-0.998,7.521-1.163,10.343c-0.367,5.655-0.569,8.672-0.569,8.672s0.11-3.023,0.3-8.69
	c0.08-2.84,0.141-6.346,0.845-10.41c0.648-4.063,0.918-8.831,2.387-13.954c0.624-2.583,1.279-5.306,1.964-8.158
	c0.802-2.821,1.928-5.692,2.95-8.728c1.004-3.054,2.142-6.193,3.703-9.29c1.518-3.115,2.84-6.481,4.664-9.712
	c6.94-13.133,17.209-26.769,30.906-39.033c13.708-12.185,31.053-22.975,51.316-29.4c20.312-6.42,43.091-8.525,66.151-5.031
	c23.109,3.25,45.974,13.146,65.631,27.993c2.57,1.714,4.811,3.843,7.147,5.875c2.283,2.081,4.731,4.015,6.897,6.249
	c4.192,4.583,8.746,8.904,12.369,14.027c7.98,9.688,14.021,20.863,19.296,32.301c2.167,5.918,4.835,11.695,6.249,17.871
	c0.802,3.06,1.731,6.065,2.423,9.18l1.604,9.554l0.766,4.773l0.3,4.498l0.6,8.984c0.067,3.77-0.165,6.45-0.239,9.73
	c-0.165,3.127-0.073,6.279-0.636,9.37c-2.883,24.816-11.487,48.88-25.484,68.439c-13.764,19.67-31.572,35.619-51.071,46.206
	c-9.804,5.178-19.768,9.499-29.847,12.351c-5.086,1.334-9.902,2.932-15.178,3.604c-5.098,0.808-10.459,1.903-14.773,1.977
	c-18.979,1.579-37.381-0.312-52.577-4.755c-15.257-4.425-28.158-10.019-37.822-16.182c-4.976-2.717-9.266-5.924-12.987-8.702
	c-1.854-1.383-3.568-2.662-5.141-3.831c-1.304-1.15-2.485-2.203-3.55-3.146c-4.241-3.758-6.505-5.766-6.505-5.766L214.392,486.636z"
	/>
<path fill="#010101" d="M257.973,443.686c0,0,1.23,1.181,3.537,3.402c0.582,0.557,1.224,1.175,1.928,1.86
	c0.605,0.472,1.267,0.979,1.977,1.536c1.396,1.12,2.95,2.461,5.214,3.812c4.174,2.957,9.816,5.668,16.579,7.975
	c6.867,2.308,14.712,3.568,24.101,3.188c2.809,0.05,4.468-0.429,6.726-0.63c2.093-0.11,4.486-0.857,6.83-1.316
	c4.712-1.113,9.4-2.925,14.101-5.109c9.303-4.561,18.048-11.689,25.043-20.784c7.1-9.052,11.738-20.423,13.703-32.466
	c0.489-2.877,0.605-6.402,0.838-8.881l-0.116-5.085l-0.067-2.54l-0.287-2.203c-0.423-5.808-2.21-12.173-4.254-18.042
	c-4.59-11.713-12.087-22.515-21.849-30.52c-9.712-8.036-21.291-13.697-33.286-15.918c-11.959-2.362-24.229-1.781-35.056,1.151
	c-10.955,2.956-20.563,8.341-28.311,14.645c-7.742,6.34-13.715,13.562-17.864,20.649c-4.033,7.13-6.842,13.831-8.244,19.608
	c-1.505,5.734-2.24,10.398-2.411,13.586c-0.251,3.188-0.386,4.896-0.386,4.896s0.037-1.708,0.116-4.915
	c-0.019-3.207,0.453-7.925,1.659-13.812c1.095-5.931,3.549-12.895,7.289-20.459c3.856-7.515,9.596-15.349,17.338-22.442
	c7.735-7.05,17.583-13.348,29.155-17.185c11.653-3.831,24.688-5.202,38.005-3.348c13.348,1.714,26.646,7.246,38.146,15.723
	c11.542,8.433,20.887,20.275,27.001,33.654c1.298,3.439,2.907,6.787,3.77,10.385l1.487,5.349l1.004,5.661l0.483,2.839l0.202,2.552
	l0.397,5.073c0.098,2.442-0.043,3.843-0.061,5.814c-0.092,1.836,0.012,3.69-0.294,5.496c-1.5,14.577-6.408,28.782-14.48,40.423
	c-7.962,11.701-18.378,21.23-29.822,27.668c-5.766,3.14-11.646,5.766-17.607,7.546c-3.029,0.814-5.808,1.817-9.045,2.265
	c-3.023,0.502-6.494,1.224-8.819,1.285c-11.053,1.102-22.185,0.079-31.243-2.441c-9.143-2.497-16.897-5.777-22.729-9.37
	c-2.968-1.585-5.637-3.495-7.944-5.19c-1.145-0.844-2.203-1.621-3.176-2.331c-0.747-0.637-1.42-1.224-2.032-1.744
	c-2.43-2.087-3.728-3.2-3.728-3.2L257.973,443.686z"/>
<rect x="79.17" y="477.883" transform="matrix(0.7072 -0.7071 0.7071 0.7072 -284.3705 293.6489)" fill="#010101" width="266.291" height="24.482"/>
<g>
</g>
<g>
</g>
<g>
</g>
<g>
</g>
<g>
</g>
<g>
</g>
</svg>
